<svg xmlns="http://www.w3.org/2000/svg" viewBox="0 0 100 100">
  <circle cx="50" cy="50" r="50" fill="#2b0000" />
  <circle cx="50" cy="50" r="46" fill="none" stroke="#fdfdfd" stroke-width="1.5" />
  <g stroke="#fdfdfd" stroke-width="1.5">
    <line x1="50" y1="50" x2="50" y2="10" transform="rotate(0 50 50)" />
    <line x1="50" y1="50" x2="50" y2="10" transform="rotate(30 50 50)" />
    <line x1="50" y1="50" x2="50" y2="10" transform="rotate(60 50 50)" />
    <line x1="50" y1="50" x2="50" y2="10" transform="rotate(90 50 50)" />
    <line x1="50" y1="50" x2="50" y2="10" transform="rotate(120 50 50)" />
    <line x1="50" y1="50" x2="50" y2="10" transform="rotate(150 50 50)" />
    <line x1="50" y1="50" x2="50" y2="10" transform="rotate(180 50 50)" />
    <line x1="50" y1="50" x2="50" y2="10" transform="rotate(210 50 50)" />
    <line x1="50" y1="50" x2="50" y2="10" transform="rotate(240 50 50)" />
    <line x1="50" y1="50" x2="50" y2="10" transform="rotate(270 50 50)" />
    <line x1="50" y1="50" x2="50" y2="10" transform="rotate(300 50 50)" />
    <line x1="50" y1="50" x2="50" y2="10" transform="rotate(330 50 50)" />
  </g>
  <circle cx="50" cy="50" r="14" fill="none" stroke="#fdfdfd" stroke-width="1.5" />
  <circle cx="50" cy="50" r="4" fill="#fdfdfd" />
</svg>
