<svg xmlns="http://www.w3.org/2000/svg" width="520" height="520" viewBox="0 0 520 520">
  <g fill="none" stroke="#f5e2ab" stroke-width="2" stroke-linejoin="round" opacity="0.55">
    <!-- kamera -->
    <g transform="translate(52 74) rotate(-8)">
      <rect x="0" y="10" width="58" height="42" rx="9"/>
      <circle cx="29" cy="31" r="12"/>
      <rect x="20" y="0" width="18" height="10" rx="3"/>
      <circle cx="49" cy="20" r="2"/>
    </g>
    <!-- photo strip 3 slot -->
    <g transform="translate(348 42) rotate(9)">
      <rect x="0" y="0" width="38" height="112" rx="5"/>
      <rect x="7" y="8" width="24" height="24" rx="2"/>
      <rect x="7" y="42" width="24" height="24" rx="2"/>
      <rect x="7" y="76" width="24" height="24" rx="2"/>
    </g>
    <!-- polaroid -->
    <g transform="translate(216 200) rotate(-6)">
      <rect x="0" y="0" width="66" height="78" rx="4"/>
      <rect x="8" y="8" width="50" height="50" rx="2"/>
    </g>
    <!-- sparkle besar (motif brand) -->
    <path d="M120 330 l7 20 20 7 -20 7 -7 20 -7 -20 -20 -7 20 -7 z"/>
    <!-- sparkle kecil -->
    <path d="M420 300 l5 13 13 5 -13 5 -5 13 -5 -13 -13 -5 13 -5 z"/>
    <path d="M300 430 l4 11 11 4 -11 4 -4 11 -4 -11 -11 -4 11 -4 z"/>
    <!-- lampu flash studio -->
    <g transform="translate(430 430) rotate(14)">
      <circle cx="18" cy="14" r="13"/>
      <path d="M18 27 v16 m-9 0 h18"/>
    </g>
    <!-- tirai/backdrop kecil -->
    <g transform="translate(60 430)">
      <path d="M0 0 h64 M6 0 q4 22 0 44 M22 0 q-4 22 0 44 M38 0 q4 22 0 44 M54 0 q-4 22 0 44"/>
    </g>
  </g>
</svg>
